<mxfile host="65bd71144e" compressed="false">
    <diagram id="Network Topology" name="Network Topology">
        <mxGraphModel dx="626" dy="522" grid="0" gridSize="10" guides="1" tooltips="1" connect="1" arrows="1" fold="1" page="1" pageScale="1" pageWidth="515" pageHeight="641" background="none" math="0" shadow="0">
            <root>
                <mxCell id="0"/>
                <mxCell id="1" parent="0"/>
                <object label="​" id="mid:spine1:e1-1:leaf1:e1-49">
                    <mxCell style="ellipse;whiteSpace=wrap;html=1;aspect=fixed;fontColor=#FFFFFF;fontSize=6;fillColor=#BEC8D2;strokeColor=none;noLabel=1;" parent="1" vertex="1">
                        <mxGeometry x="180.98371680117464" y="258.3403541208039" width="4" height="4" as="geometry"/>
                    </mxCell>
                </object>
                <object label="rate" source="leaf1:e1-49:spine1:e1-1" target="mid:spine1:e1-1:leaf1:e1-49" id="link_id:leaf1:e1-49:spine1:e1-1">
                    <mxCell style="rounded=0;orthogonalLoop=1;html=1;startSize=6;endArrow=classicThin;endFill=1;endSize=2;fontSize=14;strokeColor=#98A2AE;fontColor=#FFFFFF;textOpacity=60;labelBackgroundColor=#4D5766;jumpStyle=gap;strokeWidth=3;" parent="1" source="leaf1:e1-49:spine1:e1-1" target="mid:spine1:e1-1:leaf1:e1-49" edge="1">
                        <mxGeometry relative="1" as="geometry"/>
                    </mxCell>
                </object>
                <object label="​" id="mid:spine1:e1-2:leaf2:e1-49">
                    <mxCell style="ellipse;whiteSpace=wrap;html=1;aspect=fixed;fontColor=#FFFFFF;fontSize=6;fillColor=#BEC8D2;strokeColor=none;noLabel=1;" parent="1" vertex="1">
                        <mxGeometry x="267.3452216792366" y="259.2496786401416" width="4" height="4" as="geometry"/>
                    </mxCell>
                </object>
                <object label="rate" source="spine1:e1-2:leaf2:e1-49" target="mid:spine1:e1-2:leaf2:e1-49" id="link_id:spine1:e1-2:leaf2:e1-49">
                    <mxCell style="rounded=0;orthogonalLoop=1;html=1;startSize=6;endArrow=classicThin;endFill=1;endSize=2;fontSize=14;strokeColor=#98A2AE;fontColor=#FFFFFF;textOpacity=60;labelBackgroundColor=#4D5766;jumpStyle=gap;strokeWidth=3;" parent="1" source="spine1:e1-2:leaf2:e1-49" target="mid:spine1:e1-2:leaf2:e1-49" edge="1">
                        <mxGeometry relative="1" as="geometry"/>
                    </mxCell>
                </object>
                <object label="rate" source="leaf2:e1-49:spine1:e1-2" target="mid:spine1:e1-2:leaf2:e1-49" id="link_id:leaf2:e1-49:spine1:e1-2">
                    <mxCell style="rounded=0;orthogonalLoop=1;html=1;startSize=6;endArrow=classicThin;endFill=1;endSize=2;fontSize=14;strokeColor=#98A2AE;fontColor=#FFFFFF;textOpacity=60;labelBackgroundColor=#4D5766;jumpStyle=gap;strokeWidth=3;" parent="1" source="leaf2:e1-49:spine1:e1-2" target="mid:spine1:e1-2:leaf2:e1-49" edge="1">
                        <mxGeometry relative="1" as="geometry"/>
                    </mxCell>
                </object>
                <object label="​" id="mid:spine1:e1-3:leaf3:e1-49">
                    <mxCell style="ellipse;whiteSpace=wrap;html=1;aspect=fixed;fontColor=#FFFFFF;fontSize=6;fillColor=#BEC8D2;strokeColor=none;noLabel=1;" parent="1" vertex="1">
                        <mxGeometry x="334.5214099708058" y="237.06852851245822" width="4" height="4" as="geometry"/>
                    </mxCell>
                </object>
                <object label="rate" source="spine1:e1-3:leaf3:e1-49" target="mid:spine1:e1-3:leaf3:e1-49" id="link_id:spine1:e1-3:leaf3:e1-49">
                    <mxCell style="rounded=0;orthogonalLoop=1;html=1;startSize=6;endArrow=classicThin;endFill=1;endSize=2;fontSize=14;strokeColor=#98A2AE;fontColor=#FFFFFF;textOpacity=60;labelBackgroundColor=#4D5766;jumpStyle=gap;strokeWidth=3;" parent="1" source="spine1:e1-3:leaf3:e1-49" target="mid:spine1:e1-3:leaf3:e1-49" edge="1">
                        <mxGeometry relative="1" as="geometry"/>
                    </mxCell>
                </object>
                <object label="rate" source="leaf3:e1-49:spine1:e1-3" target="mid:spine1:e1-3:leaf3:e1-49" id="link_id:leaf3:e1-49:spine1:e1-3">
                    <mxCell style="rounded=0;orthogonalLoop=1;html=1;startSize=6;endArrow=classicThin;endFill=1;endSize=2;fontSize=14;strokeColor=#98A2AE;fontColor=#FFFFFF;textOpacity=60;labelBackgroundColor=#4D5766;jumpStyle=gap;strokeWidth=3;" parent="1" source="leaf3:e1-49:spine1:e1-3" target="mid:spine1:e1-3:leaf3:e1-49" edge="1">
                        <mxGeometry relative="1" as="geometry"/>
                    </mxCell>
                </object>
                <object label="​" id="mid:spine2:e1-1:leaf1:e1-50">
                    <mxCell style="ellipse;whiteSpace=wrap;html=1;aspect=fixed;fontColor=#FFFFFF;fontSize=6;fillColor=#BEC8D2;strokeColor=none;noLabel=1;" parent="1" vertex="1">
                        <mxGeometry x="268.04054828096673" y="236.67822258204902" width="4" height="4" as="geometry"/>
                    </mxCell>
                </object>
                <object label="rate" source="spine2:e1-1:leaf1:e1-50" target="mid:spine2:e1-1:leaf1:e1-50" id="link_id:spine2:e1-1:leaf1:e1-50">
                    <mxCell style="rounded=0;orthogonalLoop=1;html=1;startSize=6;endArrow=classicThin;endFill=1;endSize=2;fontSize=14;strokeColor=#98A2AE;fontColor=#FFFFFF;textOpacity=60;labelBackgroundColor=#4D5766;jumpStyle=gap;strokeWidth=3;" parent="1" source="spine2:e1-1:leaf1:e1-50" target="mid:spine2:e1-1:leaf1:e1-50" edge="1">
                        <mxGeometry relative="1" as="geometry"/>
                    </mxCell>
                </object>
                <object label="rate" source="leaf1:e1-50:spine2:e1-1" target="mid:spine2:e1-1:leaf1:e1-50" id="link_id:leaf1:e1-50:spine2:e1-1">
                    <mxCell style="rounded=0;orthogonalLoop=1;html=1;startSize=6;endArrow=classicThin;endFill=1;endSize=2;fontSize=14;strokeColor=#98A2AE;fontColor=#FFFFFF;textOpacity=60;labelBackgroundColor=#4D5766;jumpStyle=gap;strokeWidth=3;" parent="1" source="leaf1:e1-50:spine2:e1-1" target="mid:spine2:e1-1:leaf1:e1-50" edge="1">
                        <mxGeometry relative="1" as="geometry"/>
                    </mxCell>
                </object>
                <object label="​" id="mid:spine2:e1-2:leaf2:e1-50">
                    <mxCell style="ellipse;whiteSpace=wrap;html=1;aspect=fixed;fontColor=#FFFFFF;fontSize=6;fillColor=#BEC8D2;strokeColor=none;noLabel=1;" parent="1" vertex="1">
                        <mxGeometry x="341.23308997471844" y="241.51370693633655" width="4" height="4" as="geometry"/>
                    </mxCell>
                </object>
                <object label="rate" source="spine2:e1-2:leaf2:e1-50" target="mid:spine2:e1-2:leaf2:e1-50" id="link_id:spine2:e1-2:leaf2:e1-50">
                    <mxCell style="rounded=0;orthogonalLoop=1;html=1;startSize=6;endArrow=classicThin;endFill=1;endSize=2;fontSize=14;strokeColor=#98A2AE;fontColor=#FFFFFF;textOpacity=60;labelBackgroundColor=#4D5766;jumpStyle=gap;strokeWidth=3;" parent="1" source="spine2:e1-2:leaf2:e1-50" target="mid:spine2:e1-2:leaf2:e1-50" edge="1">
                        <mxGeometry relative="1" as="geometry"/>
                    </mxCell>
                </object>
                <object label="rate" source="leaf2:e1-50:spine2:e1-2" target="mid:spine2:e1-2:leaf2:e1-50" id="link_id:leaf2:e1-50:spine2:e1-2">
                    <mxCell style="rounded=0;orthogonalLoop=1;html=1;startSize=6;endArrow=classicThin;endFill=1;endSize=2;fontSize=14;strokeColor=#98A2AE;fontColor=#FFFFFF;textOpacity=60;labelBackgroundColor=#4D5766;jumpStyle=gap;strokeWidth=3;" parent="1" source="leaf2:e1-50:spine2:e1-2" target="mid:spine2:e1-2:leaf2:e1-50" edge="1">
                        <mxGeometry relative="1" as="geometry"/>
                    </mxCell>
                </object>
                <object label="​" id="mid:spine2:e1-3:leaf3:e1-50">
                    <mxCell style="ellipse;whiteSpace=wrap;html=1;aspect=fixed;fontColor=#FFFFFF;fontSize=6;fillColor=#BEC8D2;strokeColor=none;noLabel=1;" parent="1" vertex="1">
                        <mxGeometry x="424.2413995716846" y="257.8551371060335" width="4" height="4" as="geometry"/>
                    </mxCell>
                </object>
                <object label="rate" source="spine2:e1-3:leaf3:e1-50" target="mid:spine2:e1-3:leaf3:e1-50" id="link_id:spine2:e1-3:leaf3:e1-50">
                    <mxCell style="rounded=0;orthogonalLoop=1;html=1;startSize=6;endArrow=classicThin;endFill=1;endSize=2;fontSize=14;strokeColor=#98A2AE;fontColor=#FFFFFF;textOpacity=60;labelBackgroundColor=#4D5766;jumpStyle=gap;strokeWidth=3;" parent="1" source="spine2:e1-3:leaf3:e1-50" target="mid:spine2:e1-3:leaf3:e1-50" edge="1">
                        <mxGeometry relative="1" as="geometry"/>
                    </mxCell>
                </object>
                <object label="rate" source="leaf3:e1-50:spine2:e1-3" target="mid:spine2:e1-3:leaf3:e1-50" id="link_id:leaf3:e1-50:spine2:e1-3">
                    <mxCell style="rounded=0;orthogonalLoop=1;html=1;startSize=6;endArrow=classicThin;endFill=1;endSize=2;fontSize=14;strokeColor=#98A2AE;fontColor=#FFFFFF;textOpacity=60;labelBackgroundColor=#4D5766;jumpStyle=gap;strokeWidth=3;" parent="1" source="leaf3:e1-50:spine2:e1-3" target="mid:spine2:e1-3:leaf3:e1-50" edge="1">
                        <mxGeometry relative="1" as="geometry"/>
                    </mxCell>
                </object>
                <object label="​" id="mid:leaf1:e1-1:client1:eth1">
                    <mxCell style="ellipse;whiteSpace=wrap;html=1;aspect=fixed;fontColor=#FFFFFF;fontSize=6;fillColor=#BEC8D2;strokeColor=none;noLabel=1;" parent="1" vertex="1">
                        <mxGeometry x="135.5" y="478.8337624673943" width="4" height="4" as="geometry"/>
                    </mxCell>
                </object>
                <object label="rate" source="leaf1:e1-1:client1:eth1" target="mid:leaf1:e1-1:client1:eth1" id="link_id:leaf1:e1-1:client1:eth1">
                    <mxCell style="rounded=0;orthogonalLoop=1;html=1;startSize=6;endArrow=classicThin;endFill=1;endSize=2;fontSize=14;strokeColor=#98A2AE;fontColor=#FFFFFF;textOpacity=60;labelBackgroundColor=#4D5766;jumpStyle=gap;strokeWidth=3;" parent="1" source="leaf1:e1-1:client1:eth1" target="mid:leaf1:e1-1:client1:eth1" edge="1">
                        <mxGeometry relative="1" as="geometry"/>
                    </mxCell>
                </object>
                <object label="rate" source="client1:eth1:leaf1:e1-1" target="mid:leaf1:e1-1:client1:eth1" id="link_id:client1:eth1:leaf1:e1-1">
                    <mxCell style="rounded=0;orthogonalLoop=1;html=1;startSize=6;endArrow=classicThin;endFill=1;endSize=2;fontSize=14;strokeColor=#98A2AE;fontColor=#FFFFFF;textOpacity=60;labelBackgroundColor=#4D5766;jumpStyle=gap;strokeWidth=3;" parent="1" source="client1:eth1:leaf1:e1-1" target="mid:leaf1:e1-1:client1:eth1" edge="1">
                        <mxGeometry relative="1" as="geometry"/>
                    </mxCell>
                </object>
                <object label="​" id="mid:leaf2:e1-1:client2:eth1">
                    <mxCell style="ellipse;whiteSpace=wrap;html=1;aspect=fixed;fontColor=#FFFFFF;fontSize=6;fillColor=#BEC8D2;strokeColor=none;noLabel=1;" parent="1" vertex="1">
                        <mxGeometry x="293" y="449.2282140483924" width="4" height="4" as="geometry"/>
                    </mxCell>
                </object>
                <object label="rate" source="leaf2:e1-1:client2:eth1" target="mid:leaf2:e1-1:client2:eth1" id="link_id:leaf2:e1-1:client2:eth1">
                    <mxCell style="rounded=0;orthogonalLoop=1;html=1;startSize=6;endArrow=classicThin;endFill=1;endSize=2;fontSize=14;strokeColor=#98A2AE;fontColor=#FFFFFF;textOpacity=60;labelBackgroundColor=#4D5766;jumpStyle=gap;strokeWidth=3;" parent="1" source="leaf2:e1-1:client2:eth1" target="mid:leaf2:e1-1:client2:eth1" edge="1">
                        <mxGeometry relative="1" as="geometry"/>
                    </mxCell>
                </object>
                <object label="rate" source="client2:eth1:leaf2:e1-1" target="mid:leaf2:e1-1:client2:eth1" id="link_id:client2:eth1:leaf2:e1-1">
                    <mxCell style="rounded=0;orthogonalLoop=1;html=1;startSize=6;endArrow=classicThin;endFill=1;endSize=2;fontSize=14;strokeColor=#98A2AE;fontColor=#FFFFFF;textOpacity=60;labelBackgroundColor=#4D5766;jumpStyle=gap;strokeWidth=3;" parent="1" source="client2:eth1:leaf2:e1-1" target="mid:leaf2:e1-1:client2:eth1" edge="1">
                        <mxGeometry relative="1" as="geometry"/>
                    </mxCell>
                </object>
                <object label="​" id="mid:leaf3:e1-1:client3:eth1">
                    <mxCell style="ellipse;whiteSpace=wrap;html=1;aspect=fixed;fontColor=#FFFFFF;fontSize=6;fillColor=#BEC8D2;strokeColor=none;noLabel=1;" parent="1" vertex="1">
                        <mxGeometry x="450.5" y="484.2865288065944" width="4" height="4" as="geometry"/>
                    </mxCell>
                </object>
                <object label="rate" source="leaf3:e1-1:client3:eth1" target="mid:leaf3:e1-1:client3:eth1" id="link_id:leaf3:e1-1:client3:eth1">
                    <mxCell style="rounded=0;orthogonalLoop=1;html=1;startSize=6;endArrow=classicThin;endFill=1;endSize=2;fontSize=14;strokeColor=#98A2AE;fontColor=#FFFFFF;textOpacity=60;labelBackgroundColor=#4D5766;jumpStyle=gap;strokeWidth=3;" parent="1" source="leaf3:e1-1:client3:eth1" target="mid:leaf3:e1-1:client3:eth1" edge="1">
                        <mxGeometry relative="1" as="geometry"/>
                    </mxCell>
                </object>
                <object label="rate" source="client3:eth1:leaf3:e1-1" target="mid:leaf3:e1-1:client3:eth1" id="link_id:client3:eth1:leaf3:e1-1">
                    <mxCell style="rounded=0;orthogonalLoop=1;html=1;startSize=6;endArrow=classicThin;endFill=1;endSize=2;fontSize=14;strokeColor=#98A2AE;fontColor=#FFFFFF;textOpacity=60;labelBackgroundColor=#4D5766;jumpStyle=gap;strokeWidth=3;" parent="1" source="client3:eth1:leaf3:e1-1" target="mid:leaf3:e1-1:client3:eth1" edge="1">
                        <mxGeometry relative="1" as="geometry"/>
                    </mxCell>
                </object>
                <mxCell id="group-spine1" value="" style="group" parent="1" vertex="1" connectable="0">
                    <mxGeometry x="188.5" y="100" width="87" height="81" as="geometry"/>
                </mxCell>
                <object label="spine1" id="spine1">
                    <mxCell style="shape=image;imageAlign=center;imageVerticalAlign=middle;labelPosition=left;align=right;verticalLabelPosition=top;spacingLeft=0;verticalAlign=bottom;spacingTop=0;spacing=0;editableCssRules=\.st[0-2]$;labelBackgroundColor=none;aspect=fixed;imageAspect=0;image=data:image/svg+xml,PHN2ZyB4bWxuczp4bGluaz0iaHR0cDovL3d3dy53My5vcmcvMTk5OS94bGluayIgeG1sbnM9Imh0dHA6Ly93d3cudzMub3JnLzIwMDAvc3ZnIiB4bWw6c3BhY2U9InByZXNlcnZlIiBzdHlsZT0iZW5hYmxlLWJhY2tncm91bmQ6bmV3IDAgMCAxMjAgMTIwOyIgdmlld0JveD0iMCAwIDEyMCAxMjAiIHk9IjBweCIgeD0iMHB4IiBpZD0iTGF5ZXJfMSIgdmVyc2lvbj0iMS4xIj4mI3hhOzxzdHlsZSB0eXBlPSJ0ZXh0L2NzcyI+JiN4YTsJLnN0MHtmaWxsOiMwMDExMzU7fSYjeGE7CS5zdDF7ZmlsbDpub25lO3N0cm9rZTojRkZGRkZGO3N0cm9rZS13aWR0aDo0O3N0cm9rZS1saW5lY2FwOnJvdW5kO3N0cm9rZS1saW5lam9pbjpyb3VuZDtzdHJva2UtbWl0ZXJsaW1pdDoxMDt9JiN4YTsJLnN0MntmaWxsOiNGRkZGRkY7fSYjeGE7CS5zdDN7ZmlsbDpub25lO3N0cm9rZTojRkZGRkZGO3N0cm9rZS13aWR0aDo0O3N0cm9rZS1taXRlcmxpbWl0OjEwO30mI3hhOwkuc3Q0e2ZpbGw6bm9uZTtzdHJva2U6I0ZGRkZGRjtzdHJva2Utd2lkdGg6NDtzdHJva2UtbGluZWNhcDpyb3VuZDtzdHJva2UtbGluZWpvaW46cm91bmQ7fSYjeGE7CS5zdDV7ZmlsbDojRkZGRkZGO3N0cm9rZTojRkZGRkZGO3N0cm9rZS13aWR0aDo0O3N0cm9rZS1saW5lY2FwOnJvdW5kO3N0cm9rZS1saW5lam9pbjpyb3VuZDtzdHJva2UtbWl0ZXJsaW1pdDoxMDt9JiN4YTsJLnN0NntmaWxsOm5vbmU7c3Ryb2tlOiNGRkZGRkY7c3Ryb2tlLXdpZHRoOjQuMjMzMztzdHJva2UtbGluZWNhcDpyb3VuZDtzdHJva2UtbGluZWpvaW46cm91bmQ7c3Ryb2tlLW1pdGVybGltaXQ6MTA7fSYjeGE7CS5zdDd7ZmlsbDpub25lO3N0cm9rZTojRkZGRkZGO3N0cm9rZS13aWR0aDo0O3N0cm9rZS1saW5lY2FwOnJvdW5kO3N0cm9rZS1taXRlcmxpbWl0OjEwO30mI3hhOwkuc3Q4e2ZpbGw6I0ZGRkZGRjtzdHJva2U6I0ZGRkZGRjtzdHJva2Utd2lkdGg6NDtzdHJva2UtbWl0ZXJsaW1pdDoxMDt9JiN4YTsJLnN0OXtmaWxsOiNGRkZGRkY7c3Ryb2tlOiNGRkZGRkY7c3Ryb2tlLXdpZHRoOjQ7fSYjeGE7CS5zdDEwe2ZpbGw6bm9uZTtzdHJva2U6I0ZGRkZGRjtzdHJva2Utd2lkdGg6NDt9JiN4YTsJLnN0MTF7ZmlsbDojMjYyNjI2O3N0cm9rZTojRkZGRkZGO3N0cm9rZS13aWR0aDo0LjIzMzM7fSYjeGE7CS5zdDEye2ZpbGwtcnVsZTpldmVub2RkO2NsaXAtcnVsZTpldmVub2RkO2ZpbGw6bm9uZTtzdHJva2U6I0ZGRkZGRjtzdHJva2Utd2lkdGg6NDtzdHJva2UtbWl0ZXJsaW1pdDoxMDt9JiN4YTsJLnN0MTN7ZmlsbC1ydWxlOmV2ZW5vZGQ7Y2xpcC1ydWxlOmV2ZW5vZGQ7ZmlsbDojRkZGRkZGO3N0cm9rZTojRkZGRkZGO3N0cm9rZS13aWR0aDo0O30mI3hhOwkuc3QxNHtmaWxsOm5vbmU7c3Ryb2tlOiNGRkZGRkY7c3Ryb2tlLXdpZHRoOjQuMjMzMztzdHJva2UtbGluZWNhcDpyb3VuZDtzdHJva2UtbGluZWpvaW46cm91bmQ7fSYjeGE7CS5zdDE1e2ZpbGw6bm9uZTtzdHJva2U6I0ZGRkZGRjtzdHJva2Utd2lkdGg6NDtzdHJva2UtbGluZWNhcDpyb3VuZDt9JiN4YTsJLnN0MTZ7ZmlsbDojRkZGRkZGO3N0cm9rZTojRkZGRkZGO3N0cm9rZS1taXRlcmxpbWl0OjEwO30mI3hhOwkuc3QxN3tmaWxsOiMyNjI2MjY7c3Ryb2tlOiNGRkZGRkY7c3Ryb2tlLXdpZHRoOjQ7c3Ryb2tlLW1pdGVybGltaXQ6MTA7fSYjeGE7CS5zdDE4e2ZpbGw6I0ZGRkZGRjtzdHJva2U6I0ZGRkZGRjtzdHJva2Utd2lkdGg6NDtzdHJva2UtbGluZWNhcDpyb3VuZDtzdHJva2UtbGluZWpvaW46cm91bmQ7fSYjeGE7PC9zdHlsZT4mI3hhOzxyZWN0IGhlaWdodD0iMTIwIiB3aWR0aD0iMTIwIiBjbGFzcz0ic3QwIiB4PSIwIi8+JiN4YTs8Zz4mI3hhOwk8Zz4mI3hhOwkJPHBhdGggZD0iTTQ5LjcsNzBMMjAuMSw5OS44IiBjbGFzcz0ic3QxIi8+JiN4YTsJPC9nPiYjeGE7CTxnPiYjeGE7CQk8cGF0aCBkPSJNOTcuNyw5Ny40TDY4LDY3LjkiIGNsYXNzPSJzdDEiLz4mI3hhOwk8L2c+JiN4YTsJPGc+JiN4YTsJCTxwYXRoIGQ9Ik03MC40LDQ5LjdMOTkuOSwyMCIgY2xhc3M9InN0MSIvPiYjeGE7CTwvZz4mI3hhOwk8cGF0aCBkPSJNMjIuMywyMi4zTDUyLDUxLjkiIGNsYXNzPSJzdDEiLz4mI3hhOwk8cGF0aCBkPSJNMjAuMSwzMy45bDAtMTAuN2MwLTEuOCwxLjMtMywzLjEtMy4xbDEwLjgsMCIgY2xhc3M9InN0MSIvPiYjeGE7CTxwYXRoIGQ9Ik0zOC40LDY4bDEwLjcsMGMxLjgsMCwzLDEuMywzLjEsMy4xbDAsMTAuOCIgY2xhc3M9InN0MSIvPiYjeGE7CTxwYXRoIGQ9Ik05OS44LDg2LjJsMCwxMC43YzAsMS44LTEuMywzLTMuMSwzLjFsLTEwLjgsMCIgY2xhc3M9InN0MSIvPiYjeGE7CTxwYXRoIGQ9Ik04MS44LDUxLjlsLTEwLjcsMGMtMS44LDAtMy0xLjMtMy4xLTMuMUw2OCwzOCIgY2xhc3M9InN0MSIvPiYjeGE7PC9nPiYjeGE7PC9zdmc+;" parent="group-spine1" vertex="1">
                        <mxGeometry x="6" width="75" height="75" as="geometry"/>
                    </mxCell>
                </object>
                <object label="1" id="spine1:e1-1:leaf1:e1-49">
                    <mxCell style="ellipse;whiteSpace=wrap;html=1;aspect=fixed;fontColor=#FFFFFF;fontSize=8;strokeColor=#98A2AE;fillColor=#BEC8D2;" parent="group-spine1" vertex="1">
                        <mxGeometry y="31.5" width="12" height="12" as="geometry"/>
                    </mxCell>
                </object>
                <object label="2" id="spine1:e1-2:leaf2:e1-49">
                    <mxCell style="ellipse;whiteSpace=wrap;html=1;aspect=fixed;fontColor=#FFFFFF;fontSize=8;strokeColor=#98A2AE;fillColor=#BEC8D2;" parent="group-spine1" vertex="1">
                        <mxGeometry x="37.5" y="69" width="12" height="12" as="geometry"/>
                    </mxCell>
                </object>
                <object label="3" id="spine1:e1-3:leaf3:e1-49">
                    <mxCell style="ellipse;whiteSpace=wrap;html=1;aspect=fixed;fontColor=#FFFFFF;fontSize=8;strokeColor=#98A2AE;fillColor=#BEC8D2;" parent="group-spine1" vertex="1">
                        <mxGeometry x="75" y="31.5" width="12" height="12" as="geometry"/>
                    </mxCell>
                </object>
                <mxCell id="group-leaf1" value="" style="group" parent="1" vertex="1" connectable="0">
                    <mxGeometry x="100" y="320.5" width="81" height="81" as="geometry"/>
                </mxCell>
                <object label="leaf1" id="leaf1">
                    <mxCell style="shape=image;imageAlign=center;imageVerticalAlign=middle;labelPosition=left;align=right;verticalLabelPosition=top;spacingLeft=0;verticalAlign=bottom;spacingTop=0;spacing=0;editableCssRules=\.st[0-2]$;labelBackgroundColor=none;aspect=fixed;imageAspect=0;image=data:image/svg+xml,PHN2ZyB4bWxuczp4bGluaz0iaHR0cDovL3d3dy53My5vcmcvMTk5OS94bGluayIgeG1sbnM9Imh0dHA6Ly93d3cudzMub3JnLzIwMDAvc3ZnIiB4bWw6c3BhY2U9InByZXNlcnZlIiBzdHlsZT0iZW5hYmxlLWJhY2tncm91bmQ6bmV3IDAgMCAxMjAgMTIwOyIgdmlld0JveD0iMCAwIDEyMCAxMjAiIHk9IjBweCIgeD0iMHB4IiBpZD0iTGF5ZXJfMSIgdmVyc2lvbj0iMS4xIj4mI3hhOzxzdHlsZSB0eXBlPSJ0ZXh0L2NzcyI+JiN4YTsJLnN0MHtmaWxsOiMwMDExMzU7fSYjeGE7CS5zdDF7ZmlsbDpub25lO3N0cm9rZTojRkZGRkZGO3N0cm9rZS13aWR0aDo0O3N0cm9rZS1saW5lY2FwOnJvdW5kO3N0cm9rZS1saW5lam9pbjpyb3VuZDtzdHJva2UtbWl0ZXJsaW1pdDoxMDt9JiN4YTsJLnN0MntmaWxsOiNGRkZGRkY7fSYjeGE7CS5zdDN7ZmlsbDpub25lO3N0cm9rZTojRkZGRkZGO3N0cm9rZS13aWR0aDo0O3N0cm9rZS1taXRlcmxpbWl0OjEwO30mI3hhOwkuc3Q0e2ZpbGw6bm9uZTtzdHJva2U6I0ZGRkZGRjtzdHJva2Utd2lkdGg6NDtzdHJva2UtbGluZWNhcDpyb3VuZDtzdHJva2UtbGluZWpvaW46cm91bmQ7fSYjeGE7CS5zdDV7ZmlsbDojRkZGRkZGO3N0cm9rZTojRkZGRkZGO3N0cm9rZS13aWR0aDo0O3N0cm9rZS1saW5lY2FwOnJvdW5kO3N0cm9rZS1saW5lam9pbjpyb3VuZDtzdHJva2UtbWl0ZXJsaW1pdDoxMDt9JiN4YTsJLnN0NntmaWxsOm5vbmU7c3Ryb2tlOiNGRkZGRkY7c3Ryb2tlLXdpZHRoOjQuMjMzMztzdHJva2UtbGluZWNhcDpyb3VuZDtzdHJva2UtbGluZWpvaW46cm91bmQ7c3Ryb2tlLW1pdGVybGltaXQ6MTA7fSYjeGE7CS5zdDd7ZmlsbDpub25lO3N0cm9rZTojRkZGRkZGO3N0cm9rZS13aWR0aDo0O3N0cm9rZS1saW5lY2FwOnJvdW5kO3N0cm9rZS1taXRlcmxpbWl0OjEwO30mI3hhOwkuc3Q4e2ZpbGw6I0ZGRkZGRjtzdHJva2U6I0ZGRkZGRjtzdHJva2Utd2lkdGg6NDtzdHJva2UtbWl0ZXJsaW1pdDoxMDt9JiN4YTsJLnN0OXtmaWxsOiNGRkZGRkY7c3Ryb2tlOiNGRkZGRkY7c3Ryb2tlLXdpZHRoOjQ7fSYjeGE7CS5zdDEwe2ZpbGw6bm9uZTtzdHJva2U6I0ZGRkZGRjtzdHJva2Utd2lkdGg6NDt9JiN4YTsJLnN0MTF7ZmlsbDojMjYyNjI2O3N0cm9rZTojRkZGRkZGO3N0cm9rZS13aWR0aDo0LjIzMzM7fSYjeGE7CS5zdDEye2ZpbGwtcnVsZTpldmVub2RkO2NsaXAtcnVsZTpldmVub2RkO2ZpbGw6bm9uZTtzdHJva2U6I0ZGRkZGRjtzdHJva2Utd2lkdGg6NDtzdHJva2UtbWl0ZXJsaW1pdDoxMDt9JiN4YTsJLnN0MTN7ZmlsbC1ydWxlOmV2ZW5vZGQ7Y2xpcC1ydWxlOmV2ZW5vZGQ7ZmlsbDojRkZGRkZGO3N0cm9rZTojRkZGRkZGO3N0cm9rZS13aWR0aDo0O30mI3hhOwkuc3QxNHtmaWxsOm5vbmU7c3Ryb2tlOiNGRkZGRkY7c3Ryb2tlLXdpZHRoOjQuMjMzMztzdHJva2UtbGluZWNhcDpyb3VuZDtzdHJva2UtbGluZWpvaW46cm91bmQ7fSYjeGE7CS5zdDE1e2ZpbGw6bm9uZTtzdHJva2U6I0ZGRkZGRjtzdHJva2Utd2lkdGg6NDtzdHJva2UtbGluZWNhcDpyb3VuZDt9JiN4YTsJLnN0MTZ7ZmlsbDojRkZGRkZGO3N0cm9rZTojRkZGRkZGO3N0cm9rZS1taXRlcmxpbWl0OjEwO30mI3hhOwkuc3QxN3tmaWxsOiMyNjI2MjY7c3Ryb2tlOiNGRkZGRkY7c3Ryb2tlLXdpZHRoOjQ7c3Ryb2tlLW1pdGVybGltaXQ6MTA7fSYjeGE7CS5zdDE4e2ZpbGw6I0ZGRkZGRjtzdHJva2U6I0ZGRkZGRjtzdHJva2Utd2lkdGg6NDtzdHJva2UtbGluZWNhcDpyb3VuZDtzdHJva2UtbGluZWpvaW46cm91bmQ7fSYjeGE7PC9zdHlsZT4mI3hhOzxyZWN0IGhlaWdodD0iMTIwIiB3aWR0aD0iMTIwIiBjbGFzcz0ic3QwIiB4PSIwIi8+JiN4YTs8Zz4mI3hhOwk8Zz4mI3hhOwkJPHBhdGggZD0iTTQ5LjcsNzBMMjAuMSw5OS44IiBjbGFzcz0ic3QxIi8+JiN4YTsJPC9nPiYjeGE7CTxnPiYjeGE7CQk8cGF0aCBkPSJNOTcuNyw5Ny40TDY4LDY3LjkiIGNsYXNzPSJzdDEiLz4mI3hhOwk8L2c+JiN4YTsJPGc+JiN4YTsJCTxwYXRoIGQ9Ik03MC40LDQ5LjdMOTkuOSwyMCIgY2xhc3M9InN0MSIvPiYjeGE7CTwvZz4mI3hhOwk8cGF0aCBkPSJNMjIuMywyMi4zTDUyLDUxLjkiIGNsYXNzPSJzdDEiLz4mI3hhOwk8cGF0aCBkPSJNMjAuMSwzMy45bDAtMTAuN2MwLTEuOCwxLjMtMywzLjEtMy4xbDEwLjgsMCIgY2xhc3M9InN0MSIvPiYjeGE7CTxwYXRoIGQ9Ik0zOC40LDY4bDEwLjcsMGMxLjgsMCwzLDEuMywzLjEsMy4xbDAsMTAuOCIgY2xhc3M9InN0MSIvPiYjeGE7CTxwYXRoIGQ9Ik05OS44LDg2LjJsMCwxMC43YzAsMS44LTEuMywzLTMuMSwzLjFsLTEwLjgsMCIgY2xhc3M9InN0MSIvPiYjeGE7CTxwYXRoIGQ9Ik04MS44LDUxLjlsLTEwLjcsMGMtMS44LDAtMy0xLjMtMy4xLTMuMUw2OCwzOCIgY2xhc3M9InN0MSIvPiYjeGE7PC9nPiYjeGE7PC9zdmc+;" parent="group-leaf1" vertex="1">
                        <mxGeometry width="75" height="75" as="geometry"/>
                    </mxCell>
                </object>
                <object label="49" id="leaf1:e1-49:spine1:e1-1">
                    <mxCell style="ellipse;whiteSpace=wrap;html=1;aspect=fixed;fontColor=#FFFFFF;fontSize=8;strokeColor=#98A2AE;fillColor=#BEC8D2;" parent="group-leaf1" vertex="1">
                        <mxGeometry x="69" y="19" width="12" height="12" as="geometry"/>
                    </mxCell>
                </object>
                <object label="50" id="leaf1:e1-50:spine2:e1-1">
                    <mxCell style="ellipse;whiteSpace=wrap;html=1;aspect=fixed;fontColor=#FFFFFF;fontSize=8;strokeColor=#98A2AE;fillColor=#BEC8D2;" parent="group-leaf1" vertex="1">
                        <mxGeometry x="69" y="44" width="12" height="12" as="geometry"/>
                    </mxCell>
                </object>
                <object label="1" id="leaf1:e1-1:client1:eth1">
                    <mxCell style="ellipse;whiteSpace=wrap;html=1;aspect=fixed;fontColor=#FFFFFF;fontSize=8;strokeColor=#98A2AE;fillColor=#BEC8D2;" parent="group-leaf1" vertex="1">
                        <mxGeometry x="31.5" y="69" width="12" height="12" as="geometry"/>
                    </mxCell>
                </object>
                <mxCell id="group-leaf2" value="" style="group" parent="1" vertex="1" connectable="0">
                    <mxGeometry x="257.5" y="314.5" width="81" height="87" as="geometry"/>
                </mxCell>
                <object label="leaf2" id="leaf2">
                    <mxCell style="shape=image;imageAlign=center;imageVerticalAlign=middle;labelPosition=left;align=right;verticalLabelPosition=top;spacingLeft=0;verticalAlign=bottom;spacingTop=0;spacing=0;editableCssRules=\.st[0-2]$;labelBackgroundColor=none;aspect=fixed;imageAspect=0;image=data:image/svg+xml,PHN2ZyB4bWxuczp4bGluaz0iaHR0cDovL3d3dy53My5vcmcvMTk5OS94bGluayIgeG1sbnM9Imh0dHA6Ly93d3cudzMub3JnLzIwMDAvc3ZnIiB4bWw6c3BhY2U9InByZXNlcnZlIiBzdHlsZT0iZW5hYmxlLWJhY2tncm91bmQ6bmV3IDAgMCAxMjAgMTIwOyIgdmlld0JveD0iMCAwIDEyMCAxMjAiIHk9IjBweCIgeD0iMHB4IiBpZD0iTGF5ZXJfMSIgdmVyc2lvbj0iMS4xIj4mI3hhOzxzdHlsZSB0eXBlPSJ0ZXh0L2NzcyI+JiN4YTsJLnN0MHtmaWxsOiMwMDExMzU7fSYjeGE7CS5zdDF7ZmlsbDpub25lO3N0cm9rZTojRkZGRkZGO3N0cm9rZS13aWR0aDo0O3N0cm9rZS1saW5lY2FwOnJvdW5kO3N0cm9rZS1saW5lam9pbjpyb3VuZDtzdHJva2UtbWl0ZXJsaW1pdDoxMDt9JiN4YTsJLnN0MntmaWxsOiNGRkZGRkY7fSYjeGE7CS5zdDN7ZmlsbDpub25lO3N0cm9rZTojRkZGRkZGO3N0cm9rZS13aWR0aDo0O3N0cm9rZS1taXRlcmxpbWl0OjEwO30mI3hhOwkuc3Q0e2ZpbGw6bm9uZTtzdHJva2U6I0ZGRkZGRjtzdHJva2Utd2lkdGg6NDtzdHJva2UtbGluZWNhcDpyb3VuZDtzdHJva2UtbGluZWpvaW46cm91bmQ7fSYjeGE7CS5zdDV7ZmlsbDojRkZGRkZGO3N0cm9rZTojRkZGRkZGO3N0cm9rZS13aWR0aDo0O3N0cm9rZS1saW5lY2FwOnJvdW5kO3N0cm9rZS1saW5lam9pbjpyb3VuZDtzdHJva2UtbWl0ZXJsaW1pdDoxMDt9JiN4YTsJLnN0NntmaWxsOm5vbmU7c3Ryb2tlOiNGRkZGRkY7c3Ryb2tlLXdpZHRoOjQuMjMzMztzdHJva2UtbGluZWNhcDpyb3VuZDtzdHJva2UtbGluZWpvaW46cm91bmQ7c3Ryb2tlLW1pdGVybGltaXQ6MTA7fSYjeGE7CS5zdDd7ZmlsbDpub25lO3N0cm9rZTojRkZGRkZGO3N0cm9rZS13aWR0aDo0O3N0cm9rZS1saW5lY2FwOnJvdW5kO3N0cm9rZS1taXRlcmxpbWl0OjEwO30mI3hhOwkuc3Q4e2ZpbGw6I0ZGRkZGRjtzdHJva2U6I0ZGRkZGRjtzdHJva2Utd2lkdGg6NDtzdHJva2UtbWl0ZXJsaW1pdDoxMDt9JiN4YTsJLnN0OXtmaWxsOiNGRkZGRkY7c3Ryb2tlOiNGRkZGRkY7c3Ryb2tlLXdpZHRoOjQ7fSYjeGE7CS5zdDEwe2ZpbGw6bm9uZTtzdHJva2U6I0ZGRkZGRjtzdHJva2Utd2lkdGg6NDt9JiN4YTsJLnN0MTF7ZmlsbDojMjYyNjI2O3N0cm9rZTojRkZGRkZGO3N0cm9rZS13aWR0aDo0LjIzMzM7fSYjeGE7CS5zdDEye2ZpbGwtcnVsZTpldmVub2RkO2NsaXAtcnVsZTpldmVub2RkO2ZpbGw6bm9uZTtzdHJva2U6I0ZGRkZGRjtzdHJva2Utd2lkdGg6NDtzdHJva2UtbWl0ZXJsaW1pdDoxMDt9JiN4YTsJLnN0MTN7ZmlsbC1ydWxlOmV2ZW5vZGQ7Y2xpcC1ydWxlOmV2ZW5vZGQ7ZmlsbDojRkZGRkZGO3N0cm9rZTojRkZGRkZGO3N0cm9rZS13aWR0aDo0O30mI3hhOwkuc3QxNHtmaWxsOm5vbmU7c3Ryb2tlOiNGRkZGRkY7c3Ryb2tlLXdpZHRoOjQuMjMzMztzdHJva2UtbGluZWNhcDpyb3VuZDtzdHJva2UtbGluZWpvaW46cm91bmQ7fSYjeGE7CS5zdDE1e2ZpbGw6bm9uZTtzdHJva2U6I0ZGRkZGRjtzdHJva2Utd2lkdGg6NDtzdHJva2UtbGluZWNhcDpyb3VuZDt9JiN4YTsJLnN0MTZ7ZmlsbDojRkZGRkZGO3N0cm9rZTojRkZGRkZGO3N0cm9rZS1taXRlcmxpbWl0OjEwO30mI3hhOwkuc3QxN3tmaWxsOiMyNjI2MjY7c3Ryb2tlOiNGRkZGRkY7c3Ryb2tlLXdpZHRoOjQ7c3Ryb2tlLW1pdGVybGltaXQ6MTA7fSYjeGE7CS5zdDE4e2ZpbGw6I0ZGRkZGRjtzdHJva2U6I0ZGRkZGRjtzdHJva2Utd2lkdGg6NDtzdHJva2UtbGluZWNhcDpyb3VuZDtzdHJva2UtbGluZWpvaW46cm91bmQ7fSYjeGE7PC9zdHlsZT4mI3hhOzxyZWN0IGhlaWdodD0iMTIwIiB3aWR0aD0iMTIwIiBjbGFzcz0ic3QwIiB4PSIwIi8+JiN4YTs8Zz4mI3hhOwk8Zz4mI3hhOwkJPHBhdGggZD0iTTQ5LjcsNzBMMjAuMSw5OS44IiBjbGFzcz0ic3QxIi8+JiN4YTsJPC9nPiYjeGE7CTxnPiYjeGE7CQk8cGF0aCBkPSJNOTcuNyw5Ny40TDY4LDY3LjkiIGNsYXNzPSJzdDEiLz4mI3hhOwk8L2c+JiN4YTsJPGc+JiN4YTsJCTxwYXRoIGQ9Ik03MC40LDQ5LjdMOTkuOSwyMCIgY2xhc3M9InN0MSIvPiYjeGE7CTwvZz4mI3hhOwk8cGF0aCBkPSJNMjIuMywyMi4zTDUyLDUxLjkiIGNsYXNzPSJzdDEiLz4mI3hhOwk8cGF0aCBkPSJNMjAuMSwzMy45bDAtMTAuN2MwLTEuOCwxLjMtMywzLjEtMy4xbDEwLjgsMCIgY2xhc3M9InN0MSIvPiYjeGE7CTxwYXRoIGQ9Ik0zOC40LDY4bDEwLjcsMGMxLjgsMCwzLDEuMywzLjEsMy4xbDAsMTAuOCIgY2xhc3M9InN0MSIvPiYjeGE7CTxwYXRoIGQ9Ik05OS44LDg2LjJsMCwxMC43YzAsMS44LTEuMywzLTMuMSwzLjFsLTEwLjgsMCIgY2xhc3M9InN0MSIvPiYjeGE7CTxwYXRoIGQ9Ik04MS44LDUxLjlsLTEwLjcsMGMtMS44LDAtMy0xLjMtMy4xLTMuMUw2OCwzOCIgY2xhc3M9InN0MSIvPiYjeGE7PC9nPiYjeGE7PC9zdmc+;" parent="group-leaf2" vertex="1">
                        <mxGeometry y="6" width="75" height="75" as="geometry"/>
                    </mxCell>
                </object>
                <object label="49" id="leaf2:e1-49:spine1:e1-2">
                    <mxCell style="ellipse;whiteSpace=wrap;html=1;aspect=fixed;fontColor=#FFFFFF;fontSize=8;strokeColor=#98A2AE;fillColor=#BEC8D2;" parent="group-leaf2" vertex="1">
                        <mxGeometry x="31.5" width="12" height="12" as="geometry"/>
                    </mxCell>
                </object>
                <object label="50" id="leaf2:e1-50:spine2:e1-2">
                    <mxCell style="ellipse;whiteSpace=wrap;html=1;aspect=fixed;fontColor=#FFFFFF;fontSize=8;strokeColor=#98A2AE;fillColor=#BEC8D2;" parent="group-leaf2" vertex="1">
                        <mxGeometry x="69" y="37.5" width="12" height="12" as="geometry"/>
                    </mxCell>
                </object>
                <object label="1" id="leaf2:e1-1:client2:eth1">
                    <mxCell style="ellipse;whiteSpace=wrap;html=1;aspect=fixed;fontColor=#FFFFFF;fontSize=8;strokeColor=#98A2AE;fillColor=#BEC8D2;" parent="group-leaf2" vertex="1">
                        <mxGeometry x="31.5" y="75" width="12" height="12" as="geometry"/>
                    </mxCell>
                </object>
                <mxCell id="group-leaf3" value="" style="group" parent="1" vertex="1" connectable="0">
                    <mxGeometry x="409" y="314.5" width="81" height="87" as="geometry"/>
                </mxCell>
                <object label="leaf3" id="leaf3">
                    <mxCell style="shape=image;imageAlign=center;imageVerticalAlign=middle;labelPosition=left;align=right;verticalLabelPosition=top;spacingLeft=0;verticalAlign=bottom;spacingTop=0;spacing=0;editableCssRules=\.st[0-2]$;labelBackgroundColor=none;aspect=fixed;imageAspect=0;image=data:image/svg+xml,PHN2ZyB4bWxuczp4bGluaz0iaHR0cDovL3d3dy53My5vcmcvMTk5OS94bGluayIgeG1sbnM9Imh0dHA6Ly93d3cudzMub3JnLzIwMDAvc3ZnIiB4bWw6c3BhY2U9InByZXNlcnZlIiBzdHlsZT0iZW5hYmxlLWJhY2tncm91bmQ6bmV3IDAgMCAxMjAgMTIwOyIgdmlld0JveD0iMCAwIDEyMCAxMjAiIHk9IjBweCIgeD0iMHB4IiBpZD0iTGF5ZXJfMSIgdmVyc2lvbj0iMS4xIj4mI3hhOzxzdHlsZSB0eXBlPSJ0ZXh0L2NzcyI+JiN4YTsJLnN0MHtmaWxsOiMwMDExMzU7fSYjeGE7CS5zdDF7ZmlsbDpub25lO3N0cm9rZTojRkZGRkZGO3N0cm9rZS13aWR0aDo0O3N0cm9rZS1saW5lY2FwOnJvdW5kO3N0cm9rZS1saW5lam9pbjpyb3VuZDtzdHJva2UtbWl0ZXJsaW1pdDoxMDt9JiN4YTsJLnN0MntmaWxsOiNGRkZGRkY7fSYjeGE7CS5zdDN7ZmlsbDpub25lO3N0cm9rZTojRkZGRkZGO3N0cm9rZS13aWR0aDo0O3N0cm9rZS1taXRlcmxpbWl0OjEwO30mI3hhOwkuc3Q0e2ZpbGw6bm9uZTtzdHJva2U6I0ZGRkZGRjtzdHJva2Utd2lkdGg6NDtzdHJva2UtbGluZWNhcDpyb3VuZDtzdHJva2UtbGluZWpvaW46cm91bmQ7fSYjeGE7CS5zdDV7ZmlsbDojRkZGRkZGO3N0cm9rZTojRkZGRkZGO3N0cm9rZS13aWR0aDo0O3N0cm9rZS1saW5lY2FwOnJvdW5kO3N0cm9rZS1saW5lam9pbjpyb3VuZDtzdHJva2UtbWl0ZXJsaW1pdDoxMDt9JiN4YTsJLnN0NntmaWxsOm5vbmU7c3Ryb2tlOiNGRkZGRkY7c3Ryb2tlLXdpZHRoOjQuMjMzMztzdHJva2UtbGluZWNhcDpyb3VuZDtzdHJva2UtbGluZWpvaW46cm91bmQ7c3Ryb2tlLW1pdGVybGltaXQ6MTA7fSYjeGE7CS5zdDd7ZmlsbDpub25lO3N0cm9rZTojRkZGRkZGO3N0cm9rZS13aWR0aDo0O3N0cm9rZS1saW5lY2FwOnJvdW5kO3N0cm9rZS1taXRlcmxpbWl0OjEwO30mI3hhOwkuc3Q4e2ZpbGw6I0ZGRkZGRjtzdHJva2U6I0ZGRkZGRjtzdHJva2Utd2lkdGg6NDtzdHJva2UtbWl0ZXJsaW1pdDoxMDt9JiN4YTsJLnN0OXtmaWxsOiNGRkZGRkY7c3Ryb2tlOiNGRkZGRkY7c3Ryb2tlLXdpZHRoOjQ7fSYjeGE7CS5zdDEwe2ZpbGw6bm9uZTtzdHJva2U6I0ZGRkZGRjtzdHJva2Utd2lkdGg6NDt9JiN4YTsJLnN0MTF7ZmlsbDojMjYyNjI2O3N0cm9rZTojRkZGRkZGO3N0cm9rZS13aWR0aDo0LjIzMzM7fSYjeGE7CS5zdDEye2ZpbGwtcnVsZTpldmVub2RkO2NsaXAtcnVsZTpldmVub2RkO2ZpbGw6bm9uZTtzdHJva2U6I0ZGRkZGRjtzdHJva2Utd2lkdGg6NDtzdHJva2UtbWl0ZXJsaW1pdDoxMDt9JiN4YTsJLnN0MTN7ZmlsbC1ydWxlOmV2ZW5vZGQ7Y2xpcC1ydWxlOmV2ZW5vZGQ7ZmlsbDojRkZGRkZGO3N0cm9rZTojRkZGRkZGO3N0cm9rZS13aWR0aDo0O30mI3hhOwkuc3QxNHtmaWxsOm5vbmU7c3Ryb2tlOiNGRkZGRkY7c3Ryb2tlLXdpZHRoOjQuMjMzMztzdHJva2UtbGluZWNhcDpyb3VuZDtzdHJva2UtbGluZWpvaW46cm91bmQ7fSYjeGE7CS5zdDE1e2ZpbGw6bm9uZTtzdHJva2U6I0ZGRkZGRjtzdHJva2Utd2lkdGg6NDtzdHJva2UtbGluZWNhcDpyb3VuZDt9JiN4YTsJLnN0MTZ7ZmlsbDojRkZGRkZGO3N0cm9rZTojRkZGRkZGO3N0cm9rZS1taXRlcmxpbWl0OjEwO30mI3hhOwkuc3QxN3tmaWxsOiMyNjI2MjY7c3Ryb2tlOiNGRkZGRkY7c3Ryb2tlLXdpZHRoOjQ7c3Ryb2tlLW1pdGVybGltaXQ6MTA7fSYjeGE7CS5zdDE4e2ZpbGw6I0ZGRkZGRjtzdHJva2U6I0ZGRkZGRjtzdHJva2Utd2lkdGg6NDtzdHJva2UtbGluZWNhcDpyb3VuZDtzdHJva2UtbGluZWpvaW46cm91bmQ7fSYjeGE7PC9zdHlsZT4mI3hhOzxyZWN0IGhlaWdodD0iMTIwIiB3aWR0aD0iMTIwIiBjbGFzcz0ic3QwIiB4PSIwIi8+JiN4YTs8Zz4mI3hhOwk8Zz4mI3hhOwkJPHBhdGggZD0iTTQ5LjcsNzBMMjAuMSw5OS44IiBjbGFzcz0ic3QxIi8+JiN4YTsJPC9nPiYjeGE7CTxnPiYjeGE7CQk8cGF0aCBkPSJNOTcuNyw5Ny40TDY4LDY3LjkiIGNsYXNzPSJzdDEiLz4mI3hhOwk8L2c+JiN4YTsJPGc+JiN4YTsJCTxwYXRoIGQ9Ik03MC40LDQ5LjdMOTkuOSwyMCIgY2xhc3M9InN0MSIvPiYjeGE7CTwvZz4mI3hhOwk8cGF0aCBkPSJNMjIuMywyMi4zTDUyLDUxLjkiIGNsYXNzPSJzdDEiLz4mI3hhOwk8cGF0aCBkPSJNMjAuMSwzMy45bDAtMTAuN2MwLTEuOCwxLjMtMywzLjEtMy4xbDEwLjgsMCIgY2xhc3M9InN0MSIvPiYjeGE7CTxwYXRoIGQ9Ik0zOC40LDY4bDEwLjcsMGMxLjgsMCwzLDEuMywzLjEsMy4xbDAsMTAuOCIgY2xhc3M9InN0MSIvPiYjeGE7CTxwYXRoIGQ9Ik05OS44LDg2LjJsMCwxMC43YzAsMS44LTEuMywzLTMuMSwzLjFsLTEwLjgsMCIgY2xhc3M9InN0MSIvPiYjeGE7CTxwYXRoIGQ9Ik04MS44LDUxLjlsLTEwLjcsMGMtMS44LDAtMy0xLjMtMy4xLTMuMUw2OCwzOCIgY2xhc3M9InN0MSIvPiYjeGE7PC9nPiYjeGE7PC9zdmc+;" parent="group-leaf3" vertex="1">
                        <mxGeometry x="6" y="6" width="75" height="75" as="geometry"/>
                    </mxCell>
                </object>
                <object label="49" id="leaf3:e1-49:spine1:e1-3">
                    <mxCell style="ellipse;whiteSpace=wrap;html=1;aspect=fixed;fontColor=#FFFFFF;fontSize=8;strokeColor=#98A2AE;fillColor=#BEC8D2;" parent="group-leaf3" vertex="1">
                        <mxGeometry y="37.5" width="12" height="12" as="geometry"/>
                    </mxCell>
                </object>
                <object label="50" id="leaf3:e1-50:spine2:e1-3">
                    <mxCell style="ellipse;whiteSpace=wrap;html=1;aspect=fixed;fontColor=#FFFFFF;fontSize=8;strokeColor=#98A2AE;fillColor=#BEC8D2;" parent="group-leaf3" vertex="1">
                        <mxGeometry x="37.5" width="12" height="12" as="geometry"/>
                    </mxCell>
                </object>
                <object label="1" id="leaf3:e1-1:client3:eth1">
                    <mxCell style="ellipse;whiteSpace=wrap;html=1;aspect=fixed;fontColor=#FFFFFF;fontSize=8;strokeColor=#98A2AE;fillColor=#BEC8D2;" parent="group-leaf3" vertex="1">
                        <mxGeometry x="37.5" y="75" width="12" height="12" as="geometry"/>
                    </mxCell>
                </object>
                <mxCell id="group-spine2" value="" style="group" parent="1" vertex="1" connectable="0">
                    <mxGeometry x="346" y="100" width="81" height="81" as="geometry"/>
                </mxCell>
                <object label="spine2" id="spine2">
                    <mxCell style="shape=image;imageAlign=center;imageVerticalAlign=middle;labelPosition=left;align=right;verticalLabelPosition=top;spacingLeft=0;verticalAlign=bottom;spacingTop=0;spacing=0;editableCssRules=\.st[0-2]$;labelBackgroundColor=none;aspect=fixed;imageAspect=0;image=data:image/svg+xml,PHN2ZyB4bWxuczp4bGluaz0iaHR0cDovL3d3dy53My5vcmcvMTk5OS94bGluayIgeG1sbnM9Imh0dHA6Ly93d3cudzMub3JnLzIwMDAvc3ZnIiB4bWw6c3BhY2U9InByZXNlcnZlIiBzdHlsZT0iZW5hYmxlLWJhY2tncm91bmQ6bmV3IDAgMCAxMjAgMTIwOyIgdmlld0JveD0iMCAwIDEyMCAxMjAiIHk9IjBweCIgeD0iMHB4IiBpZD0iTGF5ZXJfMSIgdmVyc2lvbj0iMS4xIj4mI3hhOzxzdHlsZSB0eXBlPSJ0ZXh0L2NzcyI+JiN4YTsJLnN0MHtmaWxsOiMwMDExMzU7fSYjeGE7CS5zdDF7ZmlsbDpub25lO3N0cm9rZTojRkZGRkZGO3N0cm9rZS13aWR0aDo0O3N0cm9rZS1saW5lY2FwOnJvdW5kO3N0cm9rZS1saW5lam9pbjpyb3VuZDtzdHJva2UtbWl0ZXJsaW1pdDoxMDt9JiN4YTsJLnN0MntmaWxsOiNGRkZGRkY7fSYjeGE7CS5zdDN7ZmlsbDpub25lO3N0cm9rZTojRkZGRkZGO3N0cm9rZS13aWR0aDo0O3N0cm9rZS1taXRlcmxpbWl0OjEwO30mI3hhOwkuc3Q0e2ZpbGw6bm9uZTtzdHJva2U6I0ZGRkZGRjtzdHJva2Utd2lkdGg6NDtzdHJva2UtbGluZWNhcDpyb3VuZDtzdHJva2UtbGluZWpvaW46cm91bmQ7fSYjeGE7CS5zdDV7ZmlsbDojRkZGRkZGO3N0cm9rZTojRkZGRkZGO3N0cm9rZS13aWR0aDo0O3N0cm9rZS1saW5lY2FwOnJvdW5kO3N0cm9rZS1saW5lam9pbjpyb3VuZDtzdHJva2UtbWl0ZXJsaW1pdDoxMDt9JiN4YTsJLnN0NntmaWxsOm5vbmU7c3Ryb2tlOiNGRkZGRkY7c3Ryb2tlLXdpZHRoOjQuMjMzMztzdHJva2UtbGluZWNhcDpyb3VuZDtzdHJva2UtbGluZWpvaW46cm91bmQ7c3Ryb2tlLW1pdGVybGltaXQ6MTA7fSYjeGE7CS5zdDd7ZmlsbDpub25lO3N0cm9rZTojRkZGRkZGO3N0cm9rZS13aWR0aDo0O3N0cm9rZS1saW5lY2FwOnJvdW5kO3N0cm9rZS1taXRlcmxpbWl0OjEwO30mI3hhOwkuc3Q4e2ZpbGw6I0ZGRkZGRjtzdHJva2U6I0ZGRkZGRjtzdHJva2Utd2lkdGg6NDtzdHJva2UtbWl0ZXJsaW1pdDoxMDt9JiN4YTsJLnN0OXtmaWxsOiNGRkZGRkY7c3Ryb2tlOiNGRkZGRkY7c3Ryb2tlLXdpZHRoOjQ7fSYjeGE7CS5zdDEwe2ZpbGw6bm9uZTtzdHJva2U6I0ZGRkZGRjtzdHJva2Utd2lkdGg6NDt9JiN4YTsJLnN0MTF7ZmlsbDojMjYyNjI2O3N0cm9rZTojRkZGRkZGO3N0cm9rZS13aWR0aDo0LjIzMzM7fSYjeGE7CS5zdDEye2ZpbGwtcnVsZTpldmVub2RkO2NsaXAtcnVsZTpldmVub2RkO2ZpbGw6bm9uZTtzdHJva2U6I0ZGRkZGRjtzdHJva2Utd2lkdGg6NDtzdHJva2UtbWl0ZXJsaW1pdDoxMDt9JiN4YTsJLnN0MTN7ZmlsbC1ydWxlOmV2ZW5vZGQ7Y2xpcC1ydWxlOmV2ZW5vZGQ7ZmlsbDojRkZGRkZGO3N0cm9rZTojRkZGRkZGO3N0cm9rZS13aWR0aDo0O30mI3hhOwkuc3QxNHtmaWxsOm5vbmU7c3Ryb2tlOiNGRkZGRkY7c3Ryb2tlLXdpZHRoOjQuMjMzMztzdHJva2UtbGluZWNhcDpyb3VuZDtzdHJva2UtbGluZWpvaW46cm91bmQ7fSYjeGE7CS5zdDE1e2ZpbGw6bm9uZTtzdHJva2U6I0ZGRkZGRjtzdHJva2Utd2lkdGg6NDtzdHJva2UtbGluZWNhcDpyb3VuZDt9JiN4YTsJLnN0MTZ7ZmlsbDojRkZGRkZGO3N0cm9rZTojRkZGRkZGO3N0cm9rZS1taXRlcmxpbWl0OjEwO30mI3hhOwkuc3QxN3tmaWxsOiMyNjI2MjY7c3Ryb2tlOiNGRkZGRkY7c3Ryb2tlLXdpZHRoOjQ7c3Ryb2tlLW1pdGVybGltaXQ6MTA7fSYjeGE7CS5zdDE4e2ZpbGw6I0ZGRkZGRjtzdHJva2U6I0ZGRkZGRjtzdHJva2Utd2lkdGg6NDtzdHJva2UtbGluZWNhcDpyb3VuZDtzdHJva2UtbGluZWpvaW46cm91bmQ7fSYjeGE7PC9zdHlsZT4mI3hhOzxyZWN0IGhlaWdodD0iMTIwIiB3aWR0aD0iMTIwIiBjbGFzcz0ic3QwIiB4PSIwIi8+JiN4YTs8Zz4mI3hhOwk8Zz4mI3hhOwkJPHBhdGggZD0iTTQ5LjcsNzBMMjAuMSw5OS44IiBjbGFzcz0ic3QxIi8+JiN4YTsJPC9nPiYjeGE7CTxnPiYjeGE7CQk8cGF0aCBkPSJNOTcuNyw5Ny40TDY4LDY3LjkiIGNsYXNzPSJzdDEiLz4mI3hhOwk8L2c+JiN4YTsJPGc+JiN4YTsJCTxwYXRoIGQ9Ik03MC40LDQ5LjdMOTkuOSwyMCIgY2xhc3M9InN0MSIvPiYjeGE7CTwvZz4mI3hhOwk8cGF0aCBkPSJNMjIuMywyMi4zTDUyLDUxLjkiIGNsYXNzPSJzdDEiLz4mI3hhOwk8cGF0aCBkPSJNMjAuMSwzMy45bDAtMTAuN2MwLTEuOCwxLjMtMywzLjEtMy4xbDEwLjgsMCIgY2xhc3M9InN0MSIvPiYjeGE7CTxwYXRoIGQ9Ik0zOC40LDY4bDEwLjcsMGMxLjgsMCwzLDEuMywzLjEsMy4xbDAsMTAuOCIgY2xhc3M9InN0MSIvPiYjeGE7CTxwYXRoIGQ9Ik05OS44LDg2LjJsMCwxMC43YzAsMS44LTEuMywzLTMuMSwzLjFsLTEwLjgsMCIgY2xhc3M9InN0MSIvPiYjeGE7CTxwYXRoIGQ9Ik04MS44LDUxLjlsLTEwLjcsMGMtMS44LDAtMy0xLjMtMy4xLTMuMUw2OCwzOCIgY2xhc3M9InN0MSIvPiYjeGE7PC9nPiYjeGE7PC9zdmc+;" parent="group-spine2" vertex="1">
                        <mxGeometry x="6" width="75" height="75" as="geometry"/>
                    </mxCell>
                </object>
                <object label="1" id="spine2:e1-1:leaf1:e1-50">
                    <mxCell style="ellipse;whiteSpace=wrap;html=1;aspect=fixed;fontColor=#FFFFFF;fontSize=8;strokeColor=#98A2AE;fillColor=#BEC8D2;" parent="group-spine2" vertex="1">
                        <mxGeometry y="19" width="12" height="12" as="geometry"/>
                    </mxCell>
                </object>
                <object label="2" id="spine2:e1-2:leaf2:e1-50">
                    <mxCell style="ellipse;whiteSpace=wrap;html=1;aspect=fixed;fontColor=#FFFFFF;fontSize=8;strokeColor=#98A2AE;fillColor=#BEC8D2;" parent="group-spine2" vertex="1">
                        <mxGeometry y="44" width="12" height="12" as="geometry"/>
                    </mxCell>
                </object>
                <object label="3" id="spine2:e1-3:leaf3:e1-50">
                    <mxCell style="ellipse;whiteSpace=wrap;html=1;aspect=fixed;fontColor=#FFFFFF;fontSize=8;strokeColor=#98A2AE;fillColor=#BEC8D2;" parent="group-spine2" vertex="1">
                        <mxGeometry x="37.5" y="69" width="12" height="12" as="geometry"/>
                    </mxCell>
                </object>
                <mxCell id="group-client1" value="" style="group" parent="1" vertex="1" connectable="0">
                    <mxGeometry x="100" y="535" width="75" height="81" as="geometry"/>
                </mxCell>
                <object label="client1" id="client1">
                    <mxCell style="shape=image;imageAlign=center;imageVerticalAlign=middle;labelPosition=left;align=right;verticalLabelPosition=top;spacingLeft=0;verticalAlign=bottom;spacingTop=0;spacing=0;editableCssRules=\.st[0-2]$;labelBackgroundColor=none;aspect=fixed;imageAspect=0;image=data:image/svg+xml,PHN2ZyB4bWxuczp4bGluaz0iaHR0cDovL3d3dy53My5vcmcvMTk5OS94bGluayIgeG1sbnM9Imh0dHA6Ly93d3cudzMub3JnLzIwMDAvc3ZnIiB4bWw6c3BhY2U9InByZXNlcnZlIiBzdHlsZT0iZW5hYmxlLWJhY2tncm91bmQ6bmV3IDAgMCAxMjAgMTIwOyIgdmlld0JveD0iMCAwIDEyMCAxMjAiIHk9IjBweCIgeD0iMHB4IiBpZD0iTGF5ZXJfMSIgdmVyc2lvbj0iMS4xIj4mI3hhOzxzdHlsZSB0eXBlPSJ0ZXh0L2NzcyI+JiN4YTsJLnN0MHtmaWxsOiMwMDExMzU7fSYjeGE7CS5zdDF7ZmlsbDpub25lO3N0cm9rZTojRkZGRkZGO3N0cm9rZS13aWR0aDo0O3N0cm9rZS1saW5lY2FwOnJvdW5kO3N0cm9rZS1saW5lam9pbjpyb3VuZDtzdHJva2UtbWl0ZXJsaW1pdDoxMDt9JiN4YTsJLnN0MntmaWxsOiNGRkZGRkY7fSYjeGE7CS5zdDN7ZmlsbDpub25lO3N0cm9rZTojRkZGRkZGO3N0cm9rZS13aWR0aDo0O3N0cm9rZS1taXRlcmxpbWl0OjEwO30mI3hhOwkuc3Q0e2ZpbGw6bm9uZTtzdHJva2U6I0ZGRkZGRjtzdHJva2Utd2lkdGg6NDtzdHJva2UtbGluZWNhcDpyb3VuZDtzdHJva2UtbGluZWpvaW46cm91bmQ7fSYjeGE7CS5zdDV7ZmlsbDojRkZGRkZGO3N0cm9rZTojRkZGRkZGO3N0cm9rZS13aWR0aDo0O3N0cm9rZS1saW5lY2FwOnJvdW5kO3N0cm9rZS1saW5lam9pbjpyb3VuZDtzdHJva2UtbWl0ZXJsaW1pdDoxMDt9JiN4YTsJLnN0NntmaWxsOm5vbmU7c3Ryb2tlOiNGRkZGRkY7c3Ryb2tlLXdpZHRoOjQuMjMzMztzdHJva2UtbGluZWNhcDpyb3VuZDtzdHJva2UtbGluZWpvaW46cm91bmQ7c3Ryb2tlLW1pdGVybGltaXQ6MTA7fSYjeGE7CS5zdDd7ZmlsbDpub25lO3N0cm9rZTojRkZGRkZGO3N0cm9rZS13aWR0aDo0O3N0cm9rZS1saW5lY2FwOnJvdW5kO3N0cm9rZS1taXRlcmxpbWl0OjEwO30mI3hhOwkuc3Q4e2ZpbGw6I0ZGRkZGRjtzdHJva2U6I0ZGRkZGRjtzdHJva2Utd2lkdGg6NDtzdHJva2UtbWl0ZXJsaW1pdDoxMDt9JiN4YTsJLnN0OXtmaWxsOiNGRkZGRkY7c3Ryb2tlOiNGRkZGRkY7c3Ryb2tlLXdpZHRoOjQ7fSYjeGE7CS5zdDEwe2ZpbGw6bm9uZTtzdHJva2U6I0ZGRkZGRjtzdHJva2Utd2lkdGg6NDt9JiN4YTsJLnN0MTF7ZmlsbDojMjYyNjI2O3N0cm9rZTojRkZGRkZGO3N0cm9rZS13aWR0aDo0LjIzMzM7fSYjeGE7CS5zdDEye2ZpbGwtcnVsZTpldmVub2RkO2NsaXAtcnVsZTpldmVub2RkO2ZpbGw6bm9uZTtzdHJva2U6I0ZGRkZGRjtzdHJva2Utd2lkdGg6NDtzdHJva2UtbWl0ZXJsaW1pdDoxMDt9JiN4YTsJLnN0MTN7ZmlsbC1ydWxlOmV2ZW5vZGQ7Y2xpcC1ydWxlOmV2ZW5vZGQ7ZmlsbDojRkZGRkZGO3N0cm9rZTojRkZGRkZGO3N0cm9rZS13aWR0aDo0O30mI3hhOwkuc3QxNHtmaWxsOm5vbmU7c3Ryb2tlOiNGRkZGRkY7c3Ryb2tlLXdpZHRoOjQuMjMzMztzdHJva2UtbGluZWNhcDpyb3VuZDtzdHJva2UtbGluZWpvaW46cm91bmQ7fSYjeGE7CS5zdDE1e2ZpbGw6bm9uZTtzdHJva2U6I0ZGRkZGRjtzdHJva2Utd2lkdGg6NDtzdHJva2UtbGluZWNhcDpyb3VuZDt9JiN4YTsJLnN0MTZ7ZmlsbDojRkZGRkZGO3N0cm9rZTojRkZGRkZGO3N0cm9rZS1taXRlcmxpbWl0OjEwO30mI3hhOwkuc3QxN3tmaWxsOiMyNjI2MjY7c3Ryb2tlOiNGRkZGRkY7c3Ryb2tlLXdpZHRoOjQ7c3Ryb2tlLW1pdGVybGltaXQ6MTA7fSYjeGE7CS5zdDE4e2ZpbGw6I0ZGRkZGRjtzdHJva2U6I0ZGRkZGRjtzdHJva2Utd2lkdGg6NDtzdHJva2UtbGluZWNhcDpyb3VuZDtzdHJva2UtbGluZWpvaW46cm91bmQ7fSYjeGE7PC9zdHlsZT4mI3hhOzxyZWN0IGhlaWdodD0iMTIwIiB3aWR0aD0iMTIwIiBjbGFzcz0ic3QwIiB4PSIwIi8+JiN4YTs8Zz4mI3hhOwk8Zz4mI3hhOwkJPHBhdGggZD0iTTQ5LjcsNzBMMjAuMSw5OS44IiBjbGFzcz0ic3QxIi8+JiN4YTsJPC9nPiYjeGE7CTxnPiYjeGE7CQk8cGF0aCBkPSJNOTcuNyw5Ny40TDY4LDY3LjkiIGNsYXNzPSJzdDEiLz4mI3hhOwk8L2c+JiN4YTsJPGc+JiN4YTsJCTxwYXRoIGQ9Ik03MC40LDQ5LjdMOTkuOSwyMCIgY2xhc3M9InN0MSIvPiYjeGE7CTwvZz4mI3hhOwk8cGF0aCBkPSJNMjIuMywyMi4zTDUyLDUxLjkiIGNsYXNzPSJzdDEiLz4mI3hhOwk8cGF0aCBkPSJNMjAuMSwzMy45bDAtMTAuN2MwLTEuOCwxLjMtMywzLjEtMy4xbDEwLjgsMCIgY2xhc3M9InN0MSIvPiYjeGE7CTxwYXRoIGQ9Ik0zOC40LDY4bDEwLjcsMGMxLjgsMCwzLDEuMywzLjEsMy4xbDAsMTAuOCIgY2xhc3M9InN0MSIvPiYjeGE7CTxwYXRoIGQ9Ik05OS44LDg2LjJsMCwxMC43YzAsMS44LTEuMywzLTMuMSwzLjFsLTEwLjgsMCIgY2xhc3M9InN0MSIvPiYjeGE7CTxwYXRoIGQ9Ik04MS44LDUxLjlsLTEwLjcsMGMtMS44LDAtMy0xLjMtMy4xLTMuMUw2OCwzOCIgY2xhc3M9InN0MSIvPiYjeGE7PC9nPiYjeGE7PC9zdmc+;" parent="group-client1" vertex="1">
                        <mxGeometry y="6" width="75" height="75" as="geometry"/>
                    </mxCell>
                </object>
                <object label="1" id="client1:eth1:leaf1:e1-1">
                    <mxCell style="ellipse;whiteSpace=wrap;html=1;aspect=fixed;fontColor=#FFFFFF;fontSize=8;strokeColor=#98A2AE;fillColor=#BEC8D2;" parent="group-client1" vertex="1">
                        <mxGeometry x="31.5" width="12" height="12" as="geometry"/>
                    </mxCell>
                </object>
                <mxCell id="group-client2" value="" style="group" parent="1" vertex="1" connectable="0">
                    <mxGeometry x="257.5" y="535" width="75" height="81" as="geometry"/>
                </mxCell>
                <object label="client2" id="client2">
                    <mxCell style="shape=image;imageAlign=center;imageVerticalAlign=middle;labelPosition=left;align=right;verticalLabelPosition=top;spacingLeft=0;verticalAlign=bottom;spacingTop=0;spacing=0;editableCssRules=\.st[0-2]$;labelBackgroundColor=none;aspect=fixed;imageAspect=0;image=data:image/svg+xml,PHN2ZyB4bWxuczp4bGluaz0iaHR0cDovL3d3dy53My5vcmcvMTk5OS94bGluayIgeG1sbnM9Imh0dHA6Ly93d3cudzMub3JnLzIwMDAvc3ZnIiB4bWw6c3BhY2U9InByZXNlcnZlIiBzdHlsZT0iZW5hYmxlLWJhY2tncm91bmQ6bmV3IDAgMCAxMjAgMTIwOyIgdmlld0JveD0iMCAwIDEyMCAxMjAiIHk9IjBweCIgeD0iMHB4IiBpZD0iTGF5ZXJfMSIgdmVyc2lvbj0iMS4xIj4mI3hhOzxzdHlsZSB0eXBlPSJ0ZXh0L2NzcyI+JiN4YTsJLnN0MHtmaWxsOiMwMDExMzU7fSYjeGE7CS5zdDF7ZmlsbDpub25lO3N0cm9rZTojRkZGRkZGO3N0cm9rZS13aWR0aDo0O3N0cm9rZS1saW5lY2FwOnJvdW5kO3N0cm9rZS1saW5lam9pbjpyb3VuZDtzdHJva2UtbWl0ZXJsaW1pdDoxMDt9JiN4YTsJLnN0MntmaWxsOiNGRkZGRkY7fSYjeGE7CS5zdDN7ZmlsbDpub25lO3N0cm9rZTojRkZGRkZGO3N0cm9rZS13aWR0aDo0O3N0cm9rZS1taXRlcmxpbWl0OjEwO30mI3hhOwkuc3Q0e2ZpbGw6bm9uZTtzdHJva2U6I0ZGRkZGRjtzdHJva2Utd2lkdGg6NDtzdHJva2UtbGluZWNhcDpyb3VuZDtzdHJva2UtbGluZWpvaW46cm91bmQ7fSYjeGE7CS5zdDV7ZmlsbDojRkZGRkZGO3N0cm9rZTojRkZGRkZGO3N0cm9rZS13aWR0aDo0O3N0cm9rZS1saW5lY2FwOnJvdW5kO3N0cm9rZS1saW5lam9pbjpyb3VuZDtzdHJva2UtbWl0ZXJsaW1pdDoxMDt9JiN4YTsJLnN0NntmaWxsOm5vbmU7c3Ryb2tlOiNGRkZGRkY7c3Ryb2tlLXdpZHRoOjQuMjMzMztzdHJva2UtbGluZWNhcDpyb3VuZDtzdHJva2UtbGluZWpvaW46cm91bmQ7c3Ryb2tlLW1pdGVybGltaXQ6MTA7fSYjeGE7CS5zdDd7ZmlsbDpub25lO3N0cm9rZTojRkZGRkZGO3N0cm9rZS13aWR0aDo0O3N0cm9rZS1saW5lY2FwOnJvdW5kO3N0cm9rZS1taXRlcmxpbWl0OjEwO30mI3hhOwkuc3Q4e2ZpbGw6I0ZGRkZGRjtzdHJva2U6I0ZGRkZGRjtzdHJva2Utd2lkdGg6NDtzdHJva2UtbWl0ZXJsaW1pdDoxMDt9JiN4YTsJLnN0OXtmaWxsOiNGRkZGRkY7c3Ryb2tlOiNGRkZGRkY7c3Ryb2tlLXdpZHRoOjQ7fSYjeGE7CS5zdDEwe2ZpbGw6bm9uZTtzdHJva2U6I0ZGRkZGRjtzdHJva2Utd2lkdGg6NDt9JiN4YTsJLnN0MTF7ZmlsbDojMjYyNjI2O3N0cm9rZTojRkZGRkZGO3N0cm9rZS13aWR0aDo0LjIzMzM7fSYjeGE7CS5zdDEye2ZpbGwtcnVsZTpldmVub2RkO2NsaXAtcnVsZTpldmVub2RkO2ZpbGw6bm9uZTtzdHJva2U6I0ZGRkZGRjtzdHJva2Utd2lkdGg6NDtzdHJva2UtbWl0ZXJsaW1pdDoxMDt9JiN4YTsJLnN0MTN7ZmlsbC1ydWxlOmV2ZW5vZGQ7Y2xpcC1ydWxlOmV2ZW5vZGQ7ZmlsbDojRkZGRkZGO3N0cm9rZTojRkZGRkZGO3N0cm9rZS13aWR0aDo0O30mI3hhOwkuc3QxNHtmaWxsOm5vbmU7c3Ryb2tlOiNGRkZGRkY7c3Ryb2tlLXdpZHRoOjQuMjMzMztzdHJva2UtbGluZWNhcDpyb3VuZDtzdHJva2UtbGluZWpvaW46cm91bmQ7fSYjeGE7CS5zdDE1e2ZpbGw6bm9uZTtzdHJva2U6I0ZGRkZGRjtzdHJva2Utd2lkdGg6NDtzdHJva2UtbGluZWNhcDpyb3VuZDt9JiN4YTsJLnN0MTZ7ZmlsbDojRkZGRkZGO3N0cm9rZTojRkZGRkZGO3N0cm9rZS1taXRlcmxpbWl0OjEwO30mI3hhOwkuc3QxN3tmaWxsOiMyNjI2MjY7c3Ryb2tlOiNGRkZGRkY7c3Ryb2tlLXdpZHRoOjQ7c3Ryb2tlLW1pdGVybGltaXQ6MTA7fSYjeGE7CS5zdDE4e2ZpbGw6I0ZGRkZGRjtzdHJva2U6I0ZGRkZGRjtzdHJva2Utd2lkdGg6NDtzdHJva2UtbGluZWNhcDpyb3VuZDtzdHJva2UtbGluZWpvaW46cm91bmQ7fSYjeGE7PC9zdHlsZT4mI3hhOzxyZWN0IGhlaWdodD0iMTIwIiB3aWR0aD0iMTIwIiBjbGFzcz0ic3QwIiB4PSIwIi8+JiN4YTs8Zz4mI3hhOwk8Zz4mI3hhOwkJPHBhdGggZD0iTTQ5LjcsNzBMMjAuMSw5OS44IiBjbGFzcz0ic3QxIi8+JiN4YTsJPC9nPiYjeGE7CTxnPiYjeGE7CQk8cGF0aCBkPSJNOTcuNyw5Ny40TDY4LDY3LjkiIGNsYXNzPSJzdDEiLz4mI3hhOwk8L2c+JiN4YTsJPGc+JiN4YTsJCTxwYXRoIGQ9Ik03MC40LDQ5LjdMOTkuOSwyMCIgY2xhc3M9InN0MSIvPiYjeGE7CTwvZz4mI3hhOwk8cGF0aCBkPSJNMjIuMywyMi4zTDUyLDUxLjkiIGNsYXNzPSJzdDEiLz4mI3hhOwk8cGF0aCBkPSJNMjAuMSwzMy45bDAtMTAuN2MwLTEuOCwxLjMtMywzLjEtMy4xbDEwLjgsMCIgY2xhc3M9InN0MSIvPiYjeGE7CTxwYXRoIGQ9Ik0zOC40LDY4bDEwLjcsMGMxLjgsMCwzLDEuMywzLjEsMy4xbDAsMTAuOCIgY2xhc3M9InN0MSIvPiYjeGE7CTxwYXRoIGQ9Ik05OS44LDg2LjJsMCwxMC43YzAsMS44LTEuMywzLTMuMSwzLjFsLTEwLjgsMCIgY2xhc3M9InN0MSIvPiYjeGE7CTxwYXRoIGQ9Ik04MS44LDUxLjlsLTEwLjcsMGMtMS44LDAtMy0xLjMtMy4xLTMuMUw2OCwzOCIgY2xhc3M9InN0MSIvPiYjeGE7PC9nPiYjeGE7PC9zdmc+;" parent="group-client2" vertex="1">
                        <mxGeometry y="6" width="75" height="75" as="geometry"/>
                    </mxCell>
                </object>
                <object label="1" id="client2:eth1:leaf2:e1-1">
                    <mxCell style="ellipse;whiteSpace=wrap;html=1;aspect=fixed;fontColor=#FFFFFF;fontSize=8;strokeColor=#98A2AE;fillColor=#BEC8D2;" parent="group-client2" vertex="1">
                        <mxGeometry x="31.5" width="12" height="12" as="geometry"/>
                    </mxCell>
                </object>
                <mxCell id="group-client3" value="" style="group" parent="1" vertex="1" connectable="0">
                    <mxGeometry x="415" y="535" width="75" height="81" as="geometry"/>
                </mxCell>
                <object label="client3" id="client3">
                    <mxCell style="shape=image;imageAlign=center;imageVerticalAlign=middle;labelPosition=left;align=right;verticalLabelPosition=top;spacingLeft=0;verticalAlign=bottom;spacingTop=0;spacing=0;editableCssRules=\.st[0-2]$;labelBackgroundColor=none;aspect=fixed;imageAspect=0;image=data:image/svg+xml,PHN2ZyB4bWxuczp4bGluaz0iaHR0cDovL3d3dy53My5vcmcvMTk5OS94bGluayIgeG1sbnM9Imh0dHA6Ly93d3cudzMub3JnLzIwMDAvc3ZnIiB4bWw6c3BhY2U9InByZXNlcnZlIiBzdHlsZT0iZW5hYmxlLWJhY2tncm91bmQ6bmV3IDAgMCAxMjAgMTIwOyIgdmlld0JveD0iMCAwIDEyMCAxMjAiIHk9IjBweCIgeD0iMHB4IiBpZD0iTGF5ZXJfMSIgdmVyc2lvbj0iMS4xIj4mI3hhOzxzdHlsZSB0eXBlPSJ0ZXh0L2NzcyI+JiN4YTsJLnN0MHtmaWxsOiMwMDExMzU7fSYjeGE7CS5zdDF7ZmlsbDpub25lO3N0cm9rZTojRkZGRkZGO3N0cm9rZS13aWR0aDo0O3N0cm9rZS1saW5lY2FwOnJvdW5kO3N0cm9rZS1saW5lam9pbjpyb3VuZDtzdHJva2UtbWl0ZXJsaW1pdDoxMDt9JiN4YTsJLnN0MntmaWxsOiNGRkZGRkY7fSYjeGE7CS5zdDN7ZmlsbDpub25lO3N0cm9rZTojRkZGRkZGO3N0cm9rZS13aWR0aDo0O3N0cm9rZS1taXRlcmxpbWl0OjEwO30mI3hhOwkuc3Q0e2ZpbGw6bm9uZTtzdHJva2U6I0ZGRkZGRjtzdHJva2Utd2lkdGg6NDtzdHJva2UtbGluZWNhcDpyb3VuZDtzdHJva2UtbGluZWpvaW46cm91bmQ7fSYjeGE7CS5zdDV7ZmlsbDojRkZGRkZGO3N0cm9rZTojRkZGRkZGO3N0cm9rZS13aWR0aDo0O3N0cm9rZS1saW5lY2FwOnJvdW5kO3N0cm9rZS1saW5lam9pbjpyb3VuZDtzdHJva2UtbWl0ZXJsaW1pdDoxMDt9JiN4YTsJLnN0NntmaWxsOm5vbmU7c3Ryb2tlOiNGRkZGRkY7c3Ryb2tlLXdpZHRoOjQuMjMzMztzdHJva2UtbGluZWNhcDpyb3VuZDtzdHJva2UtbGluZWpvaW46cm91bmQ7c3Ryb2tlLW1pdGVybGltaXQ6MTA7fSYjeGE7CS5zdDd7ZmlsbDpub25lO3N0cm9rZTojRkZGRkZGO3N0cm9rZS13aWR0aDo0O3N0cm9rZS1saW5lY2FwOnJvdW5kO3N0cm9rZS1taXRlcmxpbWl0OjEwO30mI3hhOwkuc3Q4e2ZpbGw6I0ZGRkZGRjtzdHJva2U6I0ZGRkZGRjtzdHJva2Utd2lkdGg6NDtzdHJva2UtbWl0ZXJsaW1pdDoxMDt9JiN4YTsJLnN0OXtmaWxsOiNGRkZGRkY7c3Ryb2tlOiNGRkZGRkY7c3Ryb2tlLXdpZHRoOjQ7fSYjeGE7CS5zdDEwe2ZpbGw6bm9uZTtzdHJva2U6I0ZGRkZGRjtzdHJva2Utd2lkdGg6NDt9JiN4YTsJLnN0MTF7ZmlsbDojMjYyNjI2O3N0cm9rZTojRkZGRkZGO3N0cm9rZS13aWR0aDo0LjIzMzM7fSYjeGE7CS5zdDEye2ZpbGwtcnVsZTpldmVub2RkO2NsaXAtcnVsZTpldmVub2RkO2ZpbGw6bm9uZTtzdHJva2U6I0ZGRkZGRjtzdHJva2Utd2lkdGg6NDtzdHJva2UtbWl0ZXJsaW1pdDoxMDt9JiN4YTsJLnN0MTN7ZmlsbC1ydWxlOmV2ZW5vZGQ7Y2xpcC1ydWxlOmV2ZW5vZGQ7ZmlsbDojRkZGRkZGO3N0cm9rZTojRkZGRkZGO3N0cm9rZS13aWR0aDo0O30mI3hhOwkuc3QxNHtmaWxsOm5vbmU7c3Ryb2tlOiNGRkZGRkY7c3Ryb2tlLXdpZHRoOjQuMjMzMztzdHJva2UtbGluZWNhcDpyb3VuZDtzdHJva2UtbGluZWpvaW46cm91bmQ7fSYjeGE7CS5zdDE1e2ZpbGw6bm9uZTtzdHJva2U6I0ZGRkZGRjtzdHJva2Utd2lkdGg6NDtzdHJva2UtbGluZWNhcDpyb3VuZDt9JiN4YTsJLnN0MTZ7ZmlsbDojRkZGRkZGO3N0cm9rZTojRkZGRkZGO3N0cm9rZS1taXRlcmxpbWl0OjEwO30mI3hhOwkuc3QxN3tmaWxsOiMyNjI2MjY7c3Ryb2tlOiNGRkZGRkY7c3Ryb2tlLXdpZHRoOjQ7c3Ryb2tlLW1pdGVybGltaXQ6MTA7fSYjeGE7CS5zdDE4e2ZpbGw6I0ZGRkZGRjtzdHJva2U6I0ZGRkZGRjtzdHJva2Utd2lkdGg6NDtzdHJva2UtbGluZWNhcDpyb3VuZDtzdHJva2UtbGluZWpvaW46cm91bmQ7fSYjeGE7PC9zdHlsZT4mI3hhOzxyZWN0IGhlaWdodD0iMTIwIiB3aWR0aD0iMTIwIiBjbGFzcz0ic3QwIiB4PSIwIi8+JiN4YTs8Zz4mI3hhOwk8Zz4mI3hhOwkJPHBhdGggZD0iTTQ5LjcsNzBMMjAuMSw5OS44IiBjbGFzcz0ic3QxIi8+JiN4YTsJPC9nPiYjeGE7CTxnPiYjeGE7CQk8cGF0aCBkPSJNOTcuNyw5Ny40TDY4LDY3LjkiIGNsYXNzPSJzdDEiLz4mI3hhOwk8L2c+JiN4YTsJPGc+JiN4YTsJCTxwYXRoIGQ9Ik03MC40LDQ5LjdMOTkuOSwyMCIgY2xhc3M9InN0MSIvPiYjeGE7CTwvZz4mI3hhOwk8cGF0aCBkPSJNMjIuMywyMi4zTDUyLDUxLjkiIGNsYXNzPSJzdDEiLz4mI3hhOwk8cGF0aCBkPSJNMjAuMSwzMy45bDAtMTAuN2MwLTEuOCwxLjMtMywzLjEtMy4xbDEwLjgsMCIgY2xhc3M9InN0MSIvPiYjeGE7CTxwYXRoIGQ9Ik0zOC40LDY4bDEwLjcsMGMxLjgsMCwzLDEuMywzLjEsMy4xbDAsMTAuOCIgY2xhc3M9InN0MSIvPiYjeGE7CTxwYXRoIGQ9Ik05OS44LDg2LjJsMCwxMC43YzAsMS44LTEuMywzLTMuMSwzLjFsLTEwLjgsMCIgY2xhc3M9InN0MSIvPiYjeGE7CTxwYXRoIGQ9Ik04MS44LDUxLjlsLTEwLjcsMGMtMS44LDAtMy0xLjMtMy4xLTMuMUw2OCwzOCIgY2xhc3M9InN0MSIvPiYjeGE7PC9nPiYjeGE7PC9zdmc+;" parent="group-client3" vertex="1">
                        <mxGeometry y="6" width="75" height="75" as="geometry"/>
                    </mxCell>
                </object>
                <object label="1" id="client3:eth1:leaf3:e1-1">
                    <mxCell style="ellipse;whiteSpace=wrap;html=1;aspect=fixed;fontColor=#FFFFFF;fontSize=8;strokeColor=#98A2AE;fillColor=#BEC8D2;" parent="group-client3" vertex="1">
                        <mxGeometry x="31.5" width="12" height="12" as="geometry"/>
                    </mxCell>
                </object>
            </root>
        </mxGraphModel>
    </diagram>
</mxfile>